<svg width="14" height="14" viewBox="0 0 14 14" fill="none" xmlns="http://www.w3.org/2000/svg">
<g clip-path="url(#clip0_1213_611)">
<path d="M2.30566 11.2396C2.30566 10.8574 2.45748 10.4909 2.72771 10.2207C2.99795 9.95043 3.36446 9.79861 3.74663 9.79861H11.5278M2.30566 11.2396C2.30566 11.6217 2.45748 11.9883 2.72771 12.2585C2.99795 12.5287 3.36446 12.6805 3.74663 12.6805H11.5278V1.15283H3.74663C3.36446 1.15283 2.99795 1.30465 2.72771 1.57488C2.45748 1.84511 2.30566 2.21163 2.30566 2.5938V11.2396Z" stroke="black" stroke-width="1.15277" stroke-linecap="round" stroke-linejoin="round"/>
</g>
<path d="M6.62857 6.052H4.89941V5.47562H6.62857V3.74646H7.20496V5.47562H8.93411V6.052H7.20496V7.78116H6.62857V6.052Z" fill="black"/>
<defs>
<clipPath id="clip0_1213_611">
<rect width="13.8333" height="13.8333" fill="white"/>
</clipPath>
</defs>
</svg>
