<svg width="85" height="85" viewBox="0 0 85 85" fill="none" xmlns="http://www.w3.org/2000/svg">
<path d="M42.4365 52.9191C48.2259 52.9191 52.9191 48.2259 52.9191 42.4365C52.9191 36.647 48.2259 31.9538 42.4365 31.9538C36.647 31.9538 31.9538 36.647 31.9538 42.4365C31.9538 48.2259 36.647 52.9191 42.4365 52.9191Z" stroke="#1E1E1E" stroke-width="7.00842" stroke-linecap="round" stroke-linejoin="round"/>
<path d="M68.2937 52.9191C67.8286 53.9731 67.6898 55.1421 67.8954 56.2757C68.1009 57.4092 68.6413 58.4551 69.4468 59.2786L69.6565 59.4883C70.3062 60.1373 70.8217 60.9081 71.1734 61.7565C71.5251 62.6048 71.7061 63.5142 71.7061 64.4326C71.7061 65.351 71.5251 66.2604 71.1734 67.1088C70.8217 67.9572 70.3062 68.7279 69.6565 69.3769C69.0074 70.0267 68.2367 70.5422 67.3883 70.8939C66.5399 71.2455 65.6305 71.4266 64.7122 71.4266C63.7938 71.4266 62.8844 71.2455 62.036 70.8939C61.1876 70.5422 60.4169 70.0267 59.7678 69.3769L59.5582 69.1673C58.7347 68.3617 57.6887 67.8214 56.5552 67.6158C55.4217 67.4103 54.2526 67.5491 53.1987 68.0142C52.1652 68.4571 51.2838 69.1926 50.6629 70.1301C50.0421 71.0675 49.7089 72.1661 49.7045 73.2905V73.8845C49.7045 75.7379 48.9682 77.5155 47.6576 78.8261C46.347 80.1367 44.5695 80.8729 42.716 80.8729C40.8626 80.8729 39.085 80.1367 37.7744 78.8261C36.4638 77.5155 35.7276 75.7379 35.7276 73.8845V73.57C35.7005 72.4134 35.3261 71.2918 34.6531 70.3508C33.9801 69.4098 33.0396 68.6931 31.9538 68.2937C30.8999 67.8286 29.7308 67.6898 28.5973 67.8954C27.4638 68.1009 26.4178 68.6413 25.5943 69.4468L25.3847 69.6565C24.7356 70.3062 23.9649 70.8217 23.1165 71.1734C22.2681 71.5251 21.3587 71.7061 20.4403 71.7061C19.5219 71.7061 18.6126 71.5251 17.7642 71.1734C16.9158 70.8217 16.145 70.3062 15.496 69.6565C14.8462 69.0074 14.3308 68.2367 13.9791 67.3883C13.6274 66.5399 13.4464 65.6305 13.4464 64.7122C13.4464 63.7938 13.6274 62.8844 13.9791 62.036C14.3308 61.1876 14.8462 60.4169 15.496 59.7678L15.7057 59.5582C16.5112 58.7347 17.0516 57.6887 17.2571 56.5552C17.4626 55.4217 17.3239 54.2526 16.8587 53.1987C16.4158 52.1652 15.6803 51.2838 14.7429 50.6629C13.8054 50.0421 12.7069 49.7089 11.5825 49.7045H10.9884C9.135 49.7045 7.35746 48.9682 6.04687 47.6576C4.73628 46.347 4 44.5695 4 42.716C4 40.8626 4.73628 39.085 6.04687 37.7744C7.35746 36.4638 9.135 35.7276 10.9884 35.7276H11.3029C12.4595 35.7005 13.5812 35.3261 14.5222 34.6531C15.4631 33.9801 16.1799 33.0396 16.5792 31.9538C17.0443 30.8999 17.1831 29.7308 16.9776 28.5973C16.772 27.4638 16.2317 26.4178 15.4261 25.5943L15.2165 25.3847C14.5667 24.7356 14.0512 23.9649 13.6996 23.1165C13.3479 22.2681 13.1668 21.3587 13.1668 20.4403C13.1668 19.5219 13.3479 18.6126 13.6996 17.7642C14.0512 16.9158 14.5667 16.145 15.2165 15.496C15.8655 14.8462 16.6362 14.3308 17.4846 13.9791C18.333 13.6274 19.2424 13.4464 20.1608 13.4464C21.0792 13.4464 21.9886 13.6274 22.8369 13.9791C23.6853 14.3308 24.4561 14.8462 25.1051 15.496L25.3148 15.7057C26.1383 16.5112 27.1842 17.0516 28.3177 17.2571C29.4513 17.4626 30.6203 17.3239 31.6743 16.8587H31.9538C32.9873 16.4158 33.8687 15.6803 34.4895 14.7429C35.1104 13.8054 35.4435 12.7069 35.448 11.5825V10.9884C35.448 9.135 36.1843 7.35746 37.4949 6.04687C38.8055 4.73628 40.583 4 42.4365 4C44.2899 4 46.0675 4.73628 47.378 6.04687C48.6886 7.35746 49.4249 9.135 49.4249 10.9884V11.3029C49.4294 12.4273 49.7626 13.5259 50.3834 14.4633C51.0042 15.4008 51.8857 16.1363 52.9191 16.5792C53.9731 17.0443 55.1421 17.1831 56.2757 16.9776C57.4092 16.772 58.4551 16.2317 59.2786 15.4261L59.4883 15.2165C60.1373 14.5667 60.9081 14.0512 61.7565 13.6996C62.6048 13.3479 63.5142 13.1668 64.4326 13.1668C65.351 13.1668 66.2604 13.3479 67.1088 13.6996C67.9572 14.0512 68.7279 14.5667 69.3769 15.2165C70.0267 15.8655 70.5422 16.6362 70.8939 17.4846C71.2455 18.333 71.4266 19.2424 71.4266 20.1608C71.4266 21.0792 71.2455 21.9886 70.8939 22.8369C70.5422 23.6853 70.0267 24.4561 69.3769 25.1051L69.1673 25.3148C68.3617 26.1383 67.8214 27.1842 67.6158 28.3177C67.4103 29.4513 67.5491 30.6203 68.0142 31.6743V31.9538C68.4571 32.9873 69.1926 33.8687 70.1301 34.4895C71.0675 35.1104 72.1661 35.4435 73.2905 35.448H73.8845C75.7379 35.448 77.5155 36.1843 78.8261 37.4949C80.1367 38.8055 80.8729 40.583 80.8729 42.4365C80.8729 44.2899 80.1367 46.0675 78.8261 47.378C77.5155 48.6886 75.7379 49.4249 73.8845 49.4249H73.57C72.4456 49.4294 71.3471 49.7626 70.4096 50.3834C69.4721 51.0042 68.7367 51.8857 68.2937 52.9191Z" stroke="#1E1E1E" stroke-width="7.00842" stroke-linecap="round" stroke-linejoin="round"/>
</svg>
