<svg width="1920" height="1080" viewBox="0 0 1920 1080" fill="none" xmlns="http://www.w3.org/2000/svg">
<g clip-path="url(#clip0_1286_1119)">
<rect width="1920" height="1080" fill="white"/>
<g filter="url(#filter0_dng_1286_1119)">
<path d="M-38.998 1027.21C-21.6138 913.822 87.3893 838.26 199.673 861.766L462.83 916.856C517.296 928.258 573.933 912.964 615.255 875.694L677.041 819.969C720.63 780.655 788.647 787.633 823.347 834.977C853.501 876.12 909.962 887.652 953.835 861.629L990.293 840.005C1044.18 808.04 1112.47 814.077 1159.92 855.001L1201.37 890.752C1250.94 933.509 1318.3 949.298 1381.71 933.025L1725.63 844.762C1766.8 834.196 1810.27 837.022 1849.73 852.83L1947.5 892L2031.1 1010.71C2051.29 1039.38 2037.01 1079.4 2003.24 1088.82C2000.42 1089.6 1997.54 1090.15 1994.62 1090.44L1843 1105.5H-51L-38.998 1027.21Z" fill="url(#paint0_linear_1286_1119)"/>
</g>
<g filter="url(#filter1_ng_1286_1119)">
<path d="M441.877 842.383C533.1 888.97 644.759 876.938 745.457 858.178C752.761 856.817 759.973 856.047 767 856C789.156 855.851 813.486 862.854 836.709 872.747C904.898 901.795 982.119 916.735 1050.24 887.538L1286 786.5L1331.29 772.745C1367.08 761.875 1405.43 762.894 1440.59 775.649C1460.36 782.823 1478.67 793.543 1494.6 807.282L1552.25 857.008C1620.67 916.025 1721.56 917.502 1791.69 860.513C1816.68 840.202 1853.1 842.592 1875.23 865.994L1933.3 927.423C1960.18 955.849 1994.8 975.77 2032.88 984.721L2087.25 997.5L2114.4 1003.88C2168.09 1016.5 2212.3 1054.39 2233 1105.5L-24 1088.5L-5.49999 843L72 945C72 945 233.881 812.643 302.5 806.5C347.037 802.513 396.622 819.272 441.877 842.383Z" fill="url(#paint1_linear_1286_1119)"/>
</g>
<g filter="url(#filter2_ng_1286_1119)">
<path d="M262.94 1075.24C301.414 1048.28 348.153 1035.72 394.961 1039.77L590.559 1056.68C623.346 1059.52 656.326 1054.22 686.574 1041.25L987 912.5L1032.29 898.745C1068.08 887.875 1106.43 888.894 1141.59 901.649C1161.36 908.823 1179.67 919.543 1195.6 933.282L1318.59 1039.36C1352.85 1068.91 1396.11 1085.97 1441.32 1087.76L1656.32 1096.24C1669.08 1096.75 1681.76 1098.47 1694.19 1101.39L1788.25 1123.5L1815.4 1129.88C1869.09 1142.5 1913.3 1180.39 1934 1231.5H40L262.94 1075.24Z" fill="#556540" fill-opacity="0.5"/>
</g>
<g filter="url(#filter3_ng_1286_1119)">
<path d="M350.94 987.244C389.414 960.279 436.153 947.718 482.961 951.766L599.45 961.84C677.969 968.63 749.899 925.098 805.547 869.291C819.84 854.957 835.255 842.316 851 834C928.422 793.11 975.5 973 1075 824.5C1102.62 783.284 1122.64 762.598 1137.15 754.22C1173.98 732.965 1201.94 803.62 1241.91 818.12C1253.54 822.338 1264.3 828.641 1273.67 836.719L1350.34 902.85C1415.53 959.075 1508.98 965.808 1588.85 933.671C1634.86 915.155 1686.21 899.225 1730.5 897C1754.13 895.813 1784.1 898.106 1808.77 900.795C1837.18 903.891 1865.4 891.278 1880.63 867.088C1921.68 801.876 2022.64 839.41 2011.13 915.604L1992.95 1035.86C1990.36 1052.97 1992.43 1070.46 1998.92 1086.51L2022 1143.5H128L350.94 987.244Z" fill="url(#paint2_linear_1286_1119)"/>
</g>
<g filter="url(#filter4_ng_1286_1119)">
<path d="M-317.06 998.244C-278.586 971.279 -231.847 958.718 -185.039 962.766L10.559 979.681C43.3459 982.517 76.3259 977.217 106.574 964.254L407 835.5L452.29 821.745C488.079 810.875 526.426 811.894 561.587 824.649C581.363 831.823 599.665 842.543 615.596 856.282L681.036 912.725C746.855 969.494 841.804 977.253 915.966 931.923L958.209 906.103C1005.3 877.322 1062.18 869.277 1115.4 883.872L1194.89 905.669C1261.69 923.987 1310.61 981.136 1318.39 1049.96C1320.12 1065.25 1323.93 1080.23 1329.7 1094.49L1354 1154.5H-540L-317.06 998.244Z" fill="url(#paint3_linear_1286_1119)"/>
</g>
<g filter="url(#filter5_ng_1286_1119)">
<path d="M702.5 956.5L970.559 979.681C1003.35 982.517 1036.33 977.217 1066.57 964.254L1367 835.5L1412.29 821.745C1448.08 810.875 1486.43 811.894 1521.59 824.649C1541.36 831.823 1559.67 842.543 1575.6 856.282L1698.59 962.362C1732.85 991.911 1776.11 1008.97 1821.32 1010.76L2036.32 1019.24C2049.08 1019.75 2061.76 1021.47 2074.19 1024.39L2168.25 1046.5L2195.4 1052.88C2249.09 1065.5 2293.3 1103.39 2314 1154.5H420L83.5 1100L-7 1049C-7 1049 184.783 963.173 316 943C465.276 920.051 702.5 956.5 702.5 956.5Z" fill="url(#paint4_linear_1286_1119)"/>
</g>
</g>
<defs>
<filter id="filter0_dng_1286_1119" x="-163.9" y="712.555" width="2317.19" height="536.845" filterUnits="userSpaceOnUse" color-interpolation-filters="sRGB">
<feFlood flood-opacity="0" result="BackgroundImageFix"/>
<feColorMatrix in="SourceAlpha" type="matrix" values="0 0 0 0 0 0 0 0 0 0 0 0 0 0 0 0 0 0 127 0" result="hardAlpha"/>
<feOffset dy="31"/>
<feGaussianBlur stdDeviation="56.45"/>
<feComposite in2="hardAlpha" operator="out"/>
<feColorMatrix type="matrix" values="0 0 0 0 0 0 0 0 0 0 0 0 0 0 0 0 0 0 0.25 0"/>
<feBlend mode="normal" in2="BackgroundImageFix" result="effect1_dropShadow_1286_1119"/>
<feBlend mode="normal" in="SourceGraphic" in2="BackgroundImageFix" result="shape"/>
<feTurbulence type="fractalNoise" baseFrequency="2 2" stitchTiles="stitch" numOctaves="3" result="noise" seed="8140" />
<feColorMatrix in="noise" type="luminanceToAlpha" result="alphaNoise" />
<feComponentTransfer in="alphaNoise" result="coloredNoise1">
<feFuncA type="discrete" tableValues="1 1 1 1 1 1 1 1 1 1 1 1 1 1 1 1 1 1 1 1 1 1 1 1 1 1 1 1 1 1 1 1 1 1 1 1 1 1 1 1 1 1 1 1 1 1 1 1 1 1 1 0 0 0 0 0 0 0 0 0 0 0 0 0 0 0 0 0 0 0 0 0 0 0 0 0 0 0 0 0 0 0 0 0 0 0 0 0 0 0 0 0 0 0 0 0 0 0 0 0 "/>
</feComponentTransfer>
<feComposite operator="in" in2="shape" in="coloredNoise1" result="noise1Clipped" />
<feFlood flood-color="rgba(0, 0, 0, 0.25)" result="color1Flood" />
<feComposite operator="in" in2="noise1Clipped" in="color1Flood" result="color1" />
<feMerge result="effect2_noise_1286_1119">
<feMergeNode in="shape" />
<feMergeNode in="color1" />
</feMerge>
<feBlend mode="normal" in="effect2_noise_1286_1119" in2="effect1_dropShadow_1286_1119" result="effect2_noise_1286_1119"/>
<feTurbulence type="fractalNoise" baseFrequency="1 1" numOctaves="3" seed="2646" />
<feDisplacementMap in="effect2_noise_1286_1119" scale="4.5999999046325684" xChannelSelector="R" yChannelSelector="G" result="displacedImage" width="100%" height="100%" />
<feMerge result="effect3_texture_1286_1119">
<feMergeNode in="displacedImage"/>
</feMerge>
</filter>
<filter id="filter1_ng_1286_1119" x="-26.3" y="762.976" width="2261.6" height="344.824" filterUnits="userSpaceOnUse" color-interpolation-filters="sRGB">
<feFlood flood-opacity="0" result="BackgroundImageFix"/>
<feBlend mode="normal" in="SourceGraphic" in2="BackgroundImageFix" result="shape"/>
<feTurbulence type="fractalNoise" baseFrequency="2 2" stitchTiles="stitch" numOctaves="3" result="noise" seed="8140" />
<feColorMatrix in="noise" type="luminanceToAlpha" result="alphaNoise" />
<feComponentTransfer in="alphaNoise" result="coloredNoise1">
<feFuncA type="discrete" tableValues="1 1 1 1 1 1 1 1 1 1 1 1 1 1 1 1 1 1 1 1 1 1 1 1 1 1 1 1 1 1 1 1 1 1 1 1 1 1 1 1 1 1 1 1 1 1 1 1 1 1 1 0 0 0 0 0 0 0 0 0 0 0 0 0 0 0 0 0 0 0 0 0 0 0 0 0 0 0 0 0 0 0 0 0 0 0 0 0 0 0 0 0 0 0 0 0 0 0 0 0 "/>
</feComponentTransfer>
<feComposite operator="in" in2="shape" in="coloredNoise1" result="noise1Clipped" />
<feFlood flood-color="rgba(0, 0, 0, 0.25)" result="color1Flood" />
<feComposite operator="in" in2="noise1Clipped" in="color1Flood" result="color1" />
<feMerge result="effect1_noise_1286_1119">
<feMergeNode in="shape" />
<feMergeNode in="color1" />
</feMerge>
<feTurbulence type="fractalNoise" baseFrequency="1 1" numOctaves="3" seed="2646" />
<feDisplacementMap in="effect1_noise_1286_1119" scale="4.5999999046325684" xChannelSelector="R" yChannelSelector="G" result="displacedImage" width="100%" height="100%" />
<feMerge result="effect2_texture_1286_1119">
<feMergeNode in="displacedImage"/>
</feMerge>
</filter>
<filter id="filter2_ng_1286_1119" x="37.7" y="888.976" width="1898.6" height="344.824" filterUnits="userSpaceOnUse" color-interpolation-filters="sRGB">
<feFlood flood-opacity="0" result="BackgroundImageFix"/>
<feBlend mode="normal" in="SourceGraphic" in2="BackgroundImageFix" result="shape"/>
<feTurbulence type="fractalNoise" baseFrequency="2 2" stitchTiles="stitch" numOctaves="3" result="noise" seed="8140" />
<feColorMatrix in="noise" type="luminanceToAlpha" result="alphaNoise" />
<feComponentTransfer in="alphaNoise" result="coloredNoise1">
<feFuncA type="discrete" tableValues="1 1 1 1 1 1 1 1 1 1 1 1 1 1 1 1 1 1 1 1 1 1 1 1 1 1 1 1 1 1 1 1 1 1 1 1 1 1 1 1 1 1 1 1 1 1 1 1 1 1 1 0 0 0 0 0 0 0 0 0 0 0 0 0 0 0 0 0 0 0 0 0 0 0 0 0 0 0 0 0 0 0 0 0 0 0 0 0 0 0 0 0 0 0 0 0 0 0 0 0 "/>
</feComponentTransfer>
<feComposite operator="in" in2="shape" in="coloredNoise1" result="noise1Clipped" />
<feFlood flood-color="rgba(0, 0, 0, 0.25)" result="color1Flood" />
<feComposite operator="in" in2="noise1Clipped" in="color1Flood" result="color1" />
<feMerge result="effect1_noise_1286_1119">
<feMergeNode in="shape" />
<feMergeNode in="color1" />
</feMerge>
<feTurbulence type="fractalNoise" baseFrequency="1 1" numOctaves="3" seed="2646" />
<feDisplacementMap in="effect1_noise_1286_1119" scale="4.5999999046325684" xChannelSelector="R" yChannelSelector="G" result="displacedImage" width="100%" height="100%" />
<feMerge result="effect2_texture_1286_1119">
<feMergeNode in="displacedImage"/>
</feMerge>
</filter>
<filter id="filter3_ng_1286_1119" x="125.7" y="747.965" width="1898.6" height="397.835" filterUnits="userSpaceOnUse" color-interpolation-filters="sRGB">
<feFlood flood-opacity="0" result="BackgroundImageFix"/>
<feBlend mode="normal" in="SourceGraphic" in2="BackgroundImageFix" result="shape"/>
<feTurbulence type="fractalNoise" baseFrequency="2 2" stitchTiles="stitch" numOctaves="3" result="noise" seed="8140" />
<feColorMatrix in="noise" type="luminanceToAlpha" result="alphaNoise" />
<feComponentTransfer in="alphaNoise" result="coloredNoise1">
<feFuncA type="discrete" tableValues="1 1 1 1 1 1 1 1 1 1 1 1 1 1 1 1 1 1 1 1 1 1 1 1 1 1 1 1 1 1 1 1 1 1 1 1 1 1 1 1 1 1 1 1 1 1 1 1 1 1 1 0 0 0 0 0 0 0 0 0 0 0 0 0 0 0 0 0 0 0 0 0 0 0 0 0 0 0 0 0 0 0 0 0 0 0 0 0 0 0 0 0 0 0 0 0 0 0 0 0 "/>
</feComponentTransfer>
<feComposite operator="in" in2="shape" in="coloredNoise1" result="noise1Clipped" />
<feFlood flood-color="rgba(0, 0, 0, 0.25)" result="color1Flood" />
<feComposite operator="in" in2="noise1Clipped" in="color1Flood" result="color1" />
<feMerge result="effect1_noise_1286_1119">
<feMergeNode in="shape" />
<feMergeNode in="color1" />
</feMerge>
<feTurbulence type="fractalNoise" baseFrequency="1 1" numOctaves="3" seed="2646" />
<feDisplacementMap in="effect1_noise_1286_1119" scale="4.5999999046325684" xChannelSelector="R" yChannelSelector="G" result="displacedImage" width="100%" height="100%" />
<feMerge result="effect2_texture_1286_1119">
<feMergeNode in="displacedImage"/>
</feMerge>
</filter>
<filter id="filter4_ng_1286_1119" x="-542.3" y="811.976" width="1898.6" height="344.824" filterUnits="userSpaceOnUse" color-interpolation-filters="sRGB">
<feFlood flood-opacity="0" result="BackgroundImageFix"/>
<feBlend mode="normal" in="SourceGraphic" in2="BackgroundImageFix" result="shape"/>
<feTurbulence type="fractalNoise" baseFrequency="2 2" stitchTiles="stitch" numOctaves="3" result="noise" seed="8140" />
<feColorMatrix in="noise" type="luminanceToAlpha" result="alphaNoise" />
<feComponentTransfer in="alphaNoise" result="coloredNoise1">
<feFuncA type="discrete" tableValues="1 1 1 1 1 1 1 1 1 1 1 1 1 1 1 1 1 1 1 1 1 1 1 1 1 1 1 1 1 1 1 1 1 1 1 1 1 1 1 1 1 1 1 1 1 1 1 1 1 1 1 0 0 0 0 0 0 0 0 0 0 0 0 0 0 0 0 0 0 0 0 0 0 0 0 0 0 0 0 0 0 0 0 0 0 0 0 0 0 0 0 0 0 0 0 0 0 0 0 0 "/>
</feComponentTransfer>
<feComposite operator="in" in2="shape" in="coloredNoise1" result="noise1Clipped" />
<feFlood flood-color="rgba(0, 0, 0, 0.25)" result="color1Flood" />
<feComposite operator="in" in2="noise1Clipped" in="color1Flood" result="color1" />
<feMerge result="effect1_noise_1286_1119">
<feMergeNode in="shape" />
<feMergeNode in="color1" />
</feMerge>
<feTurbulence type="fractalNoise" baseFrequency="1 1" numOctaves="3" seed="2646" />
<feDisplacementMap in="effect1_noise_1286_1119" scale="4.5999999046325684" xChannelSelector="R" yChannelSelector="G" result="displacedImage" width="100%" height="100%" />
<feMerge result="effect2_texture_1286_1119">
<feMergeNode in="displacedImage"/>
</feMerge>
</filter>
<filter id="filter5_ng_1286_1119" x="-9.3" y="811.976" width="2325.6" height="344.824" filterUnits="userSpaceOnUse" color-interpolation-filters="sRGB">
<feFlood flood-opacity="0" result="BackgroundImageFix"/>
<feBlend mode="normal" in="SourceGraphic" in2="BackgroundImageFix" result="shape"/>
<feTurbulence type="fractalNoise" baseFrequency="2 2" stitchTiles="stitch" numOctaves="3" result="noise" seed="8140" />
<feColorMatrix in="noise" type="luminanceToAlpha" result="alphaNoise" />
<feComponentTransfer in="alphaNoise" result="coloredNoise1">
<feFuncA type="discrete" tableValues="1 1 1 1 1 1 1 1 1 1 1 1 1 1 1 1 1 1 1 1 1 1 1 1 1 1 1 1 1 1 1 1 1 1 1 1 1 1 1 1 1 1 1 1 1 1 1 1 1 1 1 0 0 0 0 0 0 0 0 0 0 0 0 0 0 0 0 0 0 0 0 0 0 0 0 0 0 0 0 0 0 0 0 0 0 0 0 0 0 0 0 0 0 0 0 0 0 0 0 0 "/>
</feComponentTransfer>
<feComposite operator="in" in2="shape" in="coloredNoise1" result="noise1Clipped" />
<feFlood flood-color="rgba(0, 0, 0, 0.25)" result="color1Flood" />
<feComposite operator="in" in2="noise1Clipped" in="color1Flood" result="color1" />
<feMerge result="effect1_noise_1286_1119">
<feMergeNode in="shape" />
<feMergeNode in="color1" />
</feMerge>
<feTurbulence type="fractalNoise" baseFrequency="1 1" numOctaves="3" seed="2646" />
<feDisplacementMap in="effect1_noise_1286_1119" scale="4.5999999046325684" xChannelSelector="R" yChannelSelector="G" result="displacedImage" width="100%" height="100%" />
<feMerge result="effect2_texture_1286_1119">
<feMergeNode in="displacedImage"/>
</feMerge>
</filter>
<linearGradient id="paint0_linear_1286_1119" x1="1011" y1="841" x2="1010.75" y2="1105.5" gradientUnits="userSpaceOnUse">
<stop stop-color="#646E58"/>
<stop offset="1" stop-color="#414839"/>
</linearGradient>
<linearGradient id="paint1_linear_1286_1119" x1="1104.5" y1="1105.5" x2="1104.5" y2="756" gradientUnits="userSpaceOnUse">
<stop stop-color="#556540"/>
<stop offset="1" stop-color="#ABCB81"/>
</linearGradient>
<linearGradient id="paint2_linear_1286_1119" x1="1115.5" y1="861" x2="1095" y2="1143.5" gradientUnits="userSpaceOnUse">
<stop stop-color="#6F8D51"/>
<stop offset="1" stop-color="#1F2716"/>
</linearGradient>
<linearGradient id="paint3_linear_1286_1119" x1="407" y1="946" x2="407" y2="1154.5" gradientUnits="userSpaceOnUse">
<stop stop-color="#ACBC9D"/>
<stop offset="1" stop-color="#4F5648"/>
</linearGradient>
<linearGradient id="paint4_linear_1286_1119" x1="1153.5" y1="1043.5" x2="1153.5" y2="1154.5" gradientUnits="userSpaceOnUse">
<stop stop-color="#7E9962"/>
<stop offset="1" stop-color="#2A3321"/>
</linearGradient>
<clipPath id="clip0_1286_1119">
<rect width="1920" height="1080" fill="white"/>
</clipPath>
</defs>
</svg>
