<svg width="78" height="71" viewBox="0 0 78 71" fill="none" xmlns="http://www.w3.org/2000/svg">
<path d="M38.9422 17.9769C38.9422 14.27 37.4697 10.7149 34.8485 8.09374C32.2273 5.47256 28.6722 4 24.9653 4H4V56.4134H28.4596C31.2397 56.4134 33.9061 57.5178 35.8719 59.4837C37.8378 61.4495 38.9422 64.1159 38.9422 66.896M38.9422 17.9769V66.896M38.9422 17.9769C38.9422 14.27 40.4148 10.7149 43.036 8.09374C45.6572 5.47256 49.2122 4 52.9191 4H73.8845V56.4134H49.4249C46.6447 56.4134 43.9784 57.5178 42.0125 59.4837C40.0467 61.4495 38.9422 64.1159 38.9422 66.896" stroke="#1E1E1E" stroke-width="7.00842" stroke-linecap="round" stroke-linejoin="round"/>
</svg>
